<svg width="79" height="79" viewBox="0 0 79 79" fill="none" xmlns="http://www.w3.org/2000/svg">
<path d="M69.7457 33.8574H9.25406C8.44707 33.8505 7.64799 34.0169 6.91069 34.3452C6.17345 34.6734 5.51522 35.156 4.98038 35.7604C4.44555 36.3648 4.04657 37.0768 3.81037 37.8485C3.57418 38.6202 3.50626 39.4336 3.61121 40.2338L7.73049 71.2693C7.90953 72.6354 8.58222 73.8893 9.62169 74.7933C10.6612 75.6978 11.9956 76.1904 13.3733 76.1786H65.5136C66.891 76.1904 68.2255 75.6978 69.2649 74.7933C70.3044 73.8893 70.977 72.6354 71.1564 71.2693L75.2757 40.2338C75.379 39.443 75.3141 38.6393 75.0844 37.8755C74.8548 37.1117 74.466 36.4052 73.9434 35.8028C73.4209 35.2002 72.7765 34.7153 72.0531 34.38C71.3297 34.0447 70.543 33.8665 69.7457 33.8574Z" stroke="#3BA7FF" stroke-opacity="0.8" stroke-width="4" stroke-linecap="round" stroke-linejoin="round"/>
<path d="M25.3929 47.9644V62.0715" stroke="#3BA7FF" stroke-opacity="0.8" stroke-width="4" stroke-linecap="round" stroke-linejoin="round"/>
<path d="M39.5 47.9644V62.0715" stroke="#3BA7FF" stroke-opacity="0.8" stroke-width="4" stroke-linecap="round" stroke-linejoin="round"/>
<path d="M53.6071 47.9644V62.0715" stroke="#3BA7FF" stroke-opacity="0.8" stroke-width="4" stroke-linecap="round" stroke-linejoin="round"/>
<path d="M53.4942 8.69043C56.8744 9.27441 59.9712 10.9464 62.3141 13.4521C64.657 15.9578 66.1174 19.1601 66.4729 22.5719L67.7143 33.8576" stroke="#3BA7FF" stroke-opacity="0.8" stroke-width="4" stroke-linecap="round" stroke-linejoin="round"/>
<path d="M11.2857 33.8575L12.5271 22.5718C12.9059 19.1802 14.3764 16.0036 16.7172 13.5203C19.0581 11.0369 22.1424 9.3815 25.5057 8.80322" stroke="#3BA7FF" stroke-opacity="0.8" stroke-width="4" stroke-linecap="round" stroke-linejoin="round"/>
<path d="M53.6072 9.87511C53.6072 10.8014 53.4247 11.7186 53.0703 12.5744C52.7158 13.4302 52.1962 14.2077 51.5412 14.8627C50.8862 15.5177 50.1087 16.0373 49.2529 16.3918C48.3971 16.7462 47.4799 16.9287 46.5536 16.9287H32.4465C30.5757 16.9287 28.7816 16.1855 27.4588 14.8627C26.136 13.5399 25.3929 11.7458 25.3929 9.87511C25.3929 8.00439 26.136 6.21029 27.4588 4.88748C28.7816 3.56467 30.5757 2.82153 32.4465 2.82153H46.5536C48.4243 2.82153 50.2184 3.56467 51.5412 4.88748C52.864 6.21029 53.6072 8.00439 53.6072 9.87511Z" stroke="#3BA7FF" stroke-opacity="0.8" stroke-width="4" stroke-linecap="round" stroke-linejoin="round"/>
</svg>
