<svg width="84" height="66" viewBox="0 0 84 66" fill="none" xmlns="http://www.w3.org/2000/svg">
<path d="M2 28.5V49.7009C2 54.648 2 57.1203 2.96278 59.0098C3.80966 60.6719 5.16 62.0246 6.8221 62.8715C8.70981 63.8333 11.1822 63.8333 16.1197 63.8333H67.3803C72.3178 63.8333 74.7866 63.8333 76.6743 62.8715C78.3364 62.0246 79.6913 60.6719 80.5382 59.0098C81.5 57.1221 81.5 54.6533 81.5 49.7158V28.5M2 28.5V19.6667M2 28.5H81.5M2 19.6667V16.1342C2 11.1871 2 8.71166 2.96278 6.8221C3.80966 5.16 5.16 3.80966 6.8221 2.96278C8.71166 2 11.1871 2 16.1342 2H67.3675C72.3147 2 74.7848 2 76.6743 2.96278C78.3364 3.80966 79.6913 5.16 80.5382 6.8221C81.5 8.70981 81.5 11.1822 81.5 16.1197V19.6667M2 19.6667H81.5M19.6667 46.1667H37.3333M81.5 28.5V19.6667" stroke="#3BA7FF" stroke-opacity="0.8" stroke-width="4" stroke-linecap="round" stroke-linejoin="round"/>
</svg>
