<svg width="90" height="76" viewBox="0 0 90 76" fill="none" xmlns="http://www.w3.org/2000/svg">
<g opacity="0.8">
<path d="M2 20C21.2571 33.505 46.9095 33.505 66.1667 20V65C46.2388 76.1803 21.9279 76.1803 2 65V20Z" fill="#3BA7FF" fill-opacity="0.25"/>
<ellipse cx="34.0833" cy="15.5" rx="32.0833" ry="13.5" stroke="#3BA7FF" stroke-width="4"/>
<path d="M2 42.5C2 42.5 2 53.0442 2 60.5C2 67.9558 16.3642 74 34.0833 74C51.8025 74 66.1667 67.9558 66.1667 60.5C66.1667 56.7785 66.1667 42.5 66.1667 42.5" stroke="#3BA7FF" stroke-width="4" stroke-linecap="square"/>
<path d="M2 15.5C2 15.5 2 30.5442 2 38C2 45.4558 16.3642 51.5 34.0833 51.5C51.8025 51.5 66.1667 45.4558 66.1667 38C66.1667 34.2785 66.1667 15.5 66.1667 15.5" stroke="#3BA7FF" stroke-width="4"/>
</g>
</svg>
