<svg width="88" height="86" viewBox="0 0 88 86" fill="none" xmlns="http://www.w3.org/2000/svg">
<path d="M69.519 61.7143H75.3188L84.7474 83.7143H3.03308L12.4617 61.7143H18.2615M72.1759 30.2857C72.1759 49.1429 43.8902 71.1429 43.8902 71.1429C43.8902 71.1429 15.6045 49.1429 15.6045 30.2857C15.6045 14.8794 28.4839 2 43.8902 2C59.2965 2 72.1759 14.8794 72.1759 30.2857ZM43.8902 39.7141C49.0975 39.7141 53.3188 35.4928 53.3188 30.2855C53.3188 25.0782 49.0975 20.8569 43.8902 20.8569C38.683 20.8569 34.4617 25.0782 34.4617 30.2855C34.4617 35.4928 38.683 39.7141 43.8902 39.7141Z" stroke="#3BA7FF" stroke-opacity="0.8" stroke-width="4"/>
</svg>
