<svg width="117" height="76" viewBox="0 0 117 76" fill="none" xmlns="http://www.w3.org/2000/svg">
<path d="M31.9188 11.5538L33.7083 8.47509L22.5984 2.00344L2.00034 37.4414L13.1102 43.9131L16.2419 38.525M31.9188 11.5538L38.6991 15.5575L56.9704 18.2841M31.9188 11.5538L16.2419 38.525M56.9704 18.2841L63.2879 14.6107L75.3519 19.276L85.887 13.1217M56.9704 18.2841L42.9834 26.4258C40.5748 27.8278 39.7561 30.9181 41.1541 33.3307C42.5552 35.7487 45.651 36.5688 48.0634 35.1611L58.7486 28.9257L61.0906 32.9298C64.5614 38.8636 72.3047 40.6502 78.0198 36.836C78.207 36.711 78.4484 36.7021 78.6444 36.8127L93.3286 45.1072M85.887 13.1217L83.183 8.50517L94.3344 2L115 37.5223L103.822 44.017L100.725 38.6822M85.887 13.1217L100.725 38.6822M93.3286 45.1072L94.4311 45.73C96.6948 47.0087 97.5082 49.8735 96.2548 52.153C94.9959 54.4425 92.1252 55.2826 89.8327 54.0324L80.4791 48.9311L83.644 50.7516C85.7866 51.984 86.5436 54.7104 85.3435 56.8729C84.1299 59.0599 81.3739 59.846 79.1911 58.6278L71.6343 54.4106L73.7638 55.6565C75.9098 56.912 76.6605 59.654 75.4538 61.8295C74.2364 64.0243 71.48 64.8276 69.2761 63.6298L63.2157 60.3364L65.1803 61.4529C67.3823 62.7043 68.1719 65.4943 66.9528 67.7161C65.7222 69.9588 62.9092 70.7792 60.6679 69.5491L55.862 66.9112M93.3286 45.1072L100.725 38.6822M16.2419 38.525L22.8895 40.7928L29.1661 47.52M29.1661 47.52L30.2721 46.0743C31.6644 44.2543 34.2845 43.9478 36.0585 45.3974C37.7527 46.7818 38.0459 49.2614 36.7215 51.0035L34.3675 54.1M29.1661 47.52L25.7098 51.9892C24.3508 53.7465 24.6433 56.2688 26.3682 57.6678C28.1582 59.1195 30.7927 58.8023 32.1878 56.9671L34.3675 54.1M34.3675 54.1L32.0107 57.3943C30.7725 59.125 31.0895 61.5209 32.7351 62.8692C34.4973 64.3131 37.1034 64.011 38.4894 62.2021L40.7227 59.2872M34.3675 54.1L36.6711 51.1972C38.079 49.4231 40.6629 49.141 42.4196 50.5697C44.1286 51.9595 44.4223 54.4585 43.0823 56.2075L40.7227 59.2872M40.7227 59.2872L43.0782 56.383C44.5066 54.6219 47.0869 54.3449 48.8558 55.7627C50.5835 57.1476 50.9107 59.6511 49.5969 61.4344L47.3845 64.4375M40.7227 59.2872L38.5385 62.3462C37.2108 64.2056 37.6192 66.7875 39.4557 68.1454C41.3135 69.5189 43.9319 69.1239 45.3028 67.2631L47.3845 64.4375M47.3845 64.4375L49.6806 61.5031C51.0522 59.7501 53.5704 59.4132 55.3538 60.744C57.1858 62.1111 57.5464 64.7146 56.155 66.5291L55.862 66.9112M47.3845 64.4375L45.1409 67.7177C43.9402 69.4733 44.3163 71.8618 45.9983 73.1625C47.7546 74.5206 50.2789 74.1922 51.6302 72.4299L55.862 66.9112" stroke="#3BA7FF" stroke-opacity="0.8" stroke-width="4" stroke-linejoin="round"/>
</svg>
