<svg width="93" height="96" viewBox="0 0 93 96" fill="none" xmlns="http://www.w3.org/2000/svg">
<g opacity="0.8">
<path d="M51.481 84V61C51.481 60.4477 51.0333 60 50.481 60H30.8144C30.2621 60 29.8144 60.4477 29.8144 61V84" stroke="#3BA7FF" stroke-width="4" stroke-linecap="round" stroke-linejoin="round"/>
<path d="M10.3144 44V80C10.3144 81.8856 10.3144 82.8284 10.9001 83.4142C11.4859 84 12.4287 84 14.3144 84H66.981C68.8666 84 69.8095 84 70.3952 83.4142C70.981 82.8284 70.981 81.8856 70.981 80V44" stroke="#3BA7FF" stroke-width="4"/>
<path d="M9.91427 13.4772C10.1067 12.7668 10.2029 12.4117 10.4718 12.2058C10.7408 12 11.1088 12 11.8447 12H69.4506C70.1866 12 70.5545 12 70.8235 12.2058C71.0925 12.4117 71.1887 12.7668 71.3811 13.4772L78.9644 41.4772C79.2783 42.636 79.4352 43.2154 79.135 43.6077C78.8348 44 78.2345 44 77.034 44H65.6568C64.0589 44 63.2599 44 62.7031 43.5347C62.1463 43.0694 62.0044 42.2832 61.7204 40.7107L60.3445 33.0901C60.269 32.6719 60.2312 32.4628 60.1477 32.4628C60.0641 32.4628 60.0264 32.6719 59.9509 33.0901L58.5749 40.7107C58.291 42.2832 58.149 43.0694 57.5922 43.5347C57.0354 44 56.2365 44 54.6386 44H46.1568C44.5589 44 43.7599 44 43.2031 43.5347C42.6463 43.0694 42.5044 42.2832 42.2204 40.7107L40.8445 33.0901C40.769 32.6719 40.7312 32.4628 40.6477 32.4628C40.5641 32.4628 40.5264 32.6719 40.4509 33.0901L39.0749 40.7107C38.791 42.2832 38.649 43.0694 38.0922 43.5347C37.5354 44 36.7365 44 35.1386 44H26.6568C25.0589 44 24.2599 44 23.7031 43.5347C23.1463 43.0694 23.0044 42.2832 22.7204 40.7107L21.3445 33.0901C21.269 32.6719 21.2312 32.4628 21.1477 32.4628C21.0641 32.4628 21.0264 32.6719 20.9509 33.0901L19.5749 40.7107C19.291 42.2832 19.149 43.0694 18.5922 43.5347C18.0354 44 17.2365 44 15.6386 44H4.2614C3.06083 44 2.46055 44 2.16036 43.6077C1.86017 43.2154 2.0171 42.636 2.33094 41.4772L9.91427 13.4772Z" stroke="#3BA7FF" stroke-width="4"/>
</g>
</svg>
