<svg width="67" height="62" viewBox="0 0 67 62" fill="none" xmlns="http://www.w3.org/2000/svg">
<path d="M23.75 27.4167V59.6667M23.75 27.4167H8.71533C6.80182 27.4167 5.84602 27.4167 5.11515 27.8073C4.47227 28.1508 3.94996 28.6986 3.62239 29.3728C3.25 30.1394 3.25 31.1435 3.25 33.1504V59.6667H23.75M23.75 27.4167V8.06706C23.75 6.0602 23.75 5.05603 24.1224 4.28951C24.45 3.61526 24.9723 3.06748 25.6152 2.72393C26.346 2.33337 27.3018 2.33337 29.2153 2.33337H38.782C40.6955 2.33337 41.6543 2.33337 42.3851 2.72393C43.028 3.06748 43.5487 3.61526 43.8763 4.28951C44.2487 5.05603 44.25 6.0602 44.25 8.06706V16.6667M23.75 59.6667H44.25M44.25 59.6667L64.75 59.6671V22.4004C64.75 20.3935 64.7487 19.3894 64.3763 18.6228C64.0487 17.9486 63.53 17.4008 62.8871 17.0573C62.1563 16.6667 61.1968 16.6667 59.2833 16.6667H44.25M44.25 59.6667V16.6667" stroke="#3BA7FF" stroke-opacity="0.8" stroke-width="4" stroke-linecap="round" stroke-linejoin="round"/>
</svg>
