<svg width="70" height="63" viewBox="0 0 70 63" fill="none" xmlns="http://www.w3.org/2000/svg">
<path d="M31.3333 2H48.9341C53.0411 2 55.0936 2 56.6622 2.79929C58.0421 3.50236 59.1651 4.6234 59.8682 6.00326C60.6667 7.57041 60.6667 9.62298 60.6667 13.722V20.3341L31.3336 20.3337M31.3333 2H13.734C9.627 2 7.57194 2 6.00326 2.79929C4.6234 3.50236 3.50236 4.6234 2.79929 6.00326C2 7.57194 2 9.627 2 13.734V20.3333M31.3333 2L31.3336 20.3337M2 20.3333V42.3333M2 20.3333L31.3336 20.3337M2 42.3333V48.9341C2 53.0411 2 55.0936 2.79929 56.6622C3.50236 58.0421 4.6234 59.1651 6.00326 59.8682C7.57041 60.6667 9.62298 60.6667 13.722 60.6667H31.3341L31.3336 20.3337M2 42.3333H31.3333M46 46H57M57 46H68M57 46V57M57 46V35" stroke="#3BA7FF" stroke-opacity="0.8" stroke-width="4" stroke-linecap="round" stroke-linejoin="round"/>
</svg>
